<?xml version="1.0" standalone="no"?>
<!DOCTYPE svg PUBLIC "-//W3C//DTD SVG 20010904//EN"
 "http://www.w3.org/TR/2001/REC-SVG-20010904/DTD/svg10.dtd">
<svg version="1.0" xmlns="http://www.w3.org/2000/svg"
 width="225.000000pt" height="225.000000pt" viewBox="0 0 225.000000 225.000000"
 preserveAspectRatio="xMidYMid meet">
<metadata>
Created by potrace 1.14, written by Peter Selinger 2001-2017
</metadata>
<g transform="translate(0.000000,225.000000) scale(0.100000,-0.100000)"
fill="#000000" stroke="none">
<path d="M1 1818 c1 -238 4 -423 7 -410 11 35 57 88 95 105 31 15 89 17 505
17 510 0 482 -3 482 53 0 29 46 126 73 155 43 47 132 80 257 97 167 23 218 72
238 230 4 33 10 58 15 57 4 -1 23 -2 43 -2 l37 0 -6 -74 c-9 -121 -62 -212
-148 -256 -39 -21 -122 -42 -234 -60 -41 -6 -85 -21 -106 -35 -40 -26 -79 -95
-79 -138 l0 -27 466 0 c412 0 470 -2 501 -17 38 -17 84 -70 95 -105 3 -13 6
172 7 410 l1 432 -1125 0 -1125 0 1 -432z"/>
<path d="M144 1430 c-55 -22 -54 -16 -54 -522 0 -273 4 -477 10 -492 22 -58
-18 -56 1025 -56 1043 0 1003 -2 1025 56 6 15 10 220 10 494 l0 469 -24 28
-24 28 -974 2 c-536 1 -983 -2 -994 -7z m266 -260 l0 -90 -95 0 -95 0 0 83 c0
46 3 87 7 90 3 4 46 7 95 7 l88 0 0 -90z m268 -2 l3 -88 -96 0 -95 0 0 90 0
91 93 -3 92 -3 3 -87z m272 2 l0 -90 -90 0 -90 0 0 90 0 90 90 0 90 0 0 -90z
m270 0 l0 -90 -95 0 -95 0 0 90 0 90 95 0 95 0 0 -90z m260 0 l0 -90 -90 0
-90 0 0 90 0 90 90 0 90 0 0 -90z m280 0 l0 -90 -95 0 -95 0 0 83 c0 46 3 87
7 90 3 4 46 7 95 7 l88 0 0 -90z m268 -2 l3 -88 -96 0 -95 0 0 90 0 91 93 -3
92 -3 3 -87z m-1488 -268 l0 -90 -160 0 -160 0 0 90 0 90 160 0 160 0 0 -90z
m270 0 l0 -90 -90 0 -90 0 0 90 0 90 90 0 90 0 0 -90z m270 0 l0 -90 -90 0
-90 0 0 90 0 90 90 0 90 0 0 -90z m270 0 l0 -90 -90 0 -90 0 0 90 0 90 90 0
90 0 0 -90z m270 0 l0 -90 -90 0 -90 0 0 90 0 90 90 0 90 0 0 -90z m410 0 l0
-90 -160 0 -160 0 0 90 0 90 160 0 160 0 0 -90z m-1620 -270 l0 -90 -95 0 -95
0 0 90 0 90 95 0 95 0 0 -90z m270 0 l0 -90 -95 0 -95 0 0 90 0 90 95 0 95 0
0 -90z m800 0 l0 -90 -355 0 -355 0 0 90 0 90 355 0 355 0 0 -90z m280 0 l0
-90 -95 0 -95 0 0 90 0 90 95 0 95 0 0 -90z m270 0 l0 -90 -95 0 -95 0 0 90 0
90 95 0 95 0 0 -90z"/>
<path d="M0 203 l0 -203 1125 0 1125 0 0 203 c-1 190 -2 200 -17 172 -23 -45
-54 -76 -90 -91 -48 -21 -1988 -21 -2036 0 -36 15 -67 46 -90 91 -15 28 -16
18 -17 -172z"/>
</g>
</svg>
